<?xml version="1.0" encoding="UTF-8"?> <svg xmlns="http://www.w3.org/2000/svg" width="390" height="168" viewBox="0 0 390 168"   fill="none"><path d="M78.654 35.2335V69.767L60.7358 66.0336V165.667H10.4717V66.0336H0V35.2335H10.239C10.239 8.86678 29.5534 8.64948e-05 54.4528 8.64948e-05C62.4992 -0.00946488 70.5271 0.772054 78.4214 2.33343V25.4335C75.0373 24.8593 71.6142 24.5473 68.1823 24.5002C60.2704 24.5002 55.3836 27.3002 55.3836 35.2335H78.654Z" fill="#2b2625"></path><path d="M86.7891 2.3327H137.053V165.667H86.7891V2.3327Z" fill="#2b2625"></path><path d="M224.085 33.8328H274.582V165.667H224.318L236.418 101.5H232.928C224.085 155.167 212.217 168 186.619 168C161.953 168 146.129 153.3 146.129 120.4V33.8328H196.626V97.533C196.626 111.3 200.582 117.833 209.89 117.833C219.431 117.833 224.085 110.6 224.085 93.3331V33.8328Z" fill="#2b2625"></path><path d="M389.999 118.3V165.667H284.351C282.722 159.833 281.559 149.1 281.559 141.167C281.559 122.966 291.099 108.033 307.621 95.6664C318.326 87.4997 333.917 78.633 348.112 72.333L347.879 69.7663C330.659 76.0663 301.571 80.733 282.955 80.733V33.8328H389.301V81.8997C358.816 99.3997 336.709 114.566 325.772 133.933H329.03C339.967 121.566 355.093 116.433 370.917 116.433C377.324 116.419 383.716 117.044 389.999 118.3V118.3Z" fill="#2b2625"></path></svg> 