<svg xmlns="http://www.w3.org/2000/svg" version="1.1" viewBox="-5.0 -10.0 110.0 135.0">
 <path d="m74.371 16.871h-48.742c-4.7695 0-8.6289 3.8594-8.6289 8.6289v49c0 3.6289 4 5.8398 7.0781 3.9102l9.8711-6.2109c1.3789-0.87109 2.9688-1.3281 4.6016-1.3281h35.82c4.7695 0 8.6289-3.8594 8.6289-8.6289v-36.742c0-4.7695-3.8594-8.6289-8.6289-8.6289zm-24.371 37.129h-14c-1.6602 0-3-1.3398-3-3s1.3398-3 3-3h14c1.6602 0 3 1.3398 3 3s-1.3398 3-3 3zm12-15h-26c-1.6602 0-3-1.3398-3-3s1.3398-3 3-3h26c1.6602 0 3 1.3398 3 3s-1.3398 3-3 3z"/>
<text x="0.0" y="117.5" font-size="5.0" font-weight="bold" font-family="Arbeit Regular, Helvetica, Arial-Unicode, Arial, Sans-serif" fill="#000000">Created by Icon Master</text><text x="0.0" y="122.5" font-size="5.0" font-weight="bold" font-family="Arbeit Regular, Helvetica, Arial-Unicode, Arial, Sans-serif" fill="#000000">from Noun Project</text></svg>