<svg xmlns="http://www.w3.org/2000/svg" xmlns:xlink="http://www.w3.org/1999/xlink" version="1.1" x="0px" y="0px" viewBox="0 0 98 122.5" style="enable-background:new 0 0 98 98;" xml:space="preserve"><path d="M49,6.3C25.455,6.3,6.3,25.455,6.3,49c0,23.545,19.155,42.7,42.7,42.7c23.545,0,42.7-19.155,42.7-42.7  C91.7,25.455,72.545,6.3,49,6.3z M49,86.362c-20.602,0-37.362-16.761-37.362-37.363S28.398,11.638,49,11.638  S86.362,28.398,86.362,49S69.602,86.362,49,86.362z M61.521,40.091c0,7.951-4.013,10.263-6.943,11.951  c-2.534,1.46-4.064,2.342-4.064,6.745c0,1.474-1.195,2.669-2.669,2.669s-2.669-1.195-2.669-2.669c0-7.488,3.893-9.732,6.736-11.37  c2.571-1.482,4.27-2.46,4.27-7.327c0-3.961-3.223-7.184-7.184-7.184s-7.184,3.223-7.184,7.184c0,1.474-1.195,2.669-2.669,2.669  s-2.669-1.195-2.669-2.669c0-6.904,5.617-12.521,12.521-12.521C55.904,27.57,61.521,33.187,61.521,40.091z M50.346,66.761v1.001  c0,1.474-1.195,2.669-2.669,2.669c-1.474,0-2.669-1.195-2.669-2.669v-1.001c0-1.474,1.195-2.669,2.669-2.669  C49.151,64.092,50.346,65.287,50.346,66.761z" fill="#D2D2D0"/></svg>